<?xml version="1.0" encoding="utf-8"?>
<!-- Generator: Adobe Illustrator 24.1.2, SVG Export Plug-In . SVG Version: 6.00 Build 0)  -->
<svg version="1.1" id="Layer_1" xmlns="http://www.w3.org/2000/svg" xmlns:xlink="http://www.w3.org/1999/xlink" x="0px" y="0px"
	 viewBox="0 0 1007.76 445.91" style="enable-background:new 0 0 1007.76 445.91;" xml:space="preserve">
<style type="text/css">
	.st0{fill-rule:evenodd;clip-rule:evenodd;fill:#B81237;}
	.st1{fill-rule:evenodd;clip-rule:evenodd;fill:#F57E20;}
	.st2{fill:#F57E20;}
</style>
<g>
	<path class="st0" d="M120.83,297.62c-0.25,0-0.53,0-0.79,0c-28.43,0-55.05-13.98-71.18-37.39v32.99H0V0h48.87v116.37
		c15.7-22.11,37.75-39.83,71.96-39.83c50.21,0,98.9,39.77,98.9,110.51C219.73,257.79,171.47,297.62,120.83,297.62L120.83,297.62z
		 M109.53,118.75c-32.99,0-61.88,26.94-61.88,68.36c0,41.42,28.95,68.36,61.88,68.36c32.93,0,60.72-26.15,60.72-68.36
		C170.25,144.9,142.52,118.75,109.53,118.75L109.53,118.75z"/>
	<path class="st0" d="M338.66,258.27c23.7,0,40.62-8.86,57.48-25.35l28.53,25.35c-20.36,25.17-51.05,39.82-83.44,39.82
		c-1.11,0-2.27-0.03-3.37-0.05c-61.52,0-108.92-44.59-108.92-110.51c0-61.09,42.76-110.93,103.85-110.93
		c67.5,0,101.71,53.08,101.71,114.54c0,4.4-0.43,8.43-0.8,13.26H277.58C283.32,238.97,307.33,258.27,338.66,258.27L338.66,258.27z
		 M389.42,168.69c-3.24-31.34-21.68-55.89-53.88-55.89c-29.75,0-50.64,22.91-54.98,55.89h22.85H389.42L389.42,168.69z"/>
	<path class="st0" d="M584.23,293.22v-26.15c-16.23,19.39-40.26,30.6-65.56,30.6c-1.05,0-2.12-0.03-3.16-0.06
		c-40.19,0-75.56-22.91-75.56-65.48l0-0.79c0-45.81,36.65-68.36,86.01-68.36c0.98,0,2.05-0.03,3.05-0.03
		c18.9,0,37.71,3.01,55.64,8.88l0-5.25c0-29.32-18.33-45.45-52.23-45.45c-20.95,0.05-41.66,4.58-60.72,13.25l-13.26-38.91
		c24.45-11.67,51.25-17.73,78.35-17.73c0.8,0,1.69,0.02,2.47,0.02c62.68,0,93.22,32.99,93.22,89.61l0,125.83H584.23L584.23,293.22z
		 M584.66,203.4c-15.26-5.57-31.4-8.44-47.66-8.44c-0.39,0-0.81,0-1.2,0c-30.54,0-48.87,12.22-48.87,34.15v0.79
		c0,20.1,18.33,31.34,40.99,31.34c32.13,0,56.26-18.33,56.26-44.59L584.66,203.4L584.66,203.4z"/>
	<polygon class="st0" points="664.26,293.22 664.26,0 713.13,0 713.13,293.22 664.26,293.22 	"/>
	<polygon class="st0" points="750.27,293.22 750.27,0 799.14,0 799.14,293.22 750.27,293.22 	"/>
	<path class="st0" d="M906.41,297.25c-32.67-0.42-64.34-11.62-90.05-31.77l21.69-32.99c19.75,15.85,44.1,24.99,69.4,26.08
		c20.89,0,32.99-8.86,32.99-22.91v-0.73c0-16.49-22.54-22.54-47.4-29.75c-31.34-9.23-66.34-21.69-66.34-62.31v-0.79
		c0-40.19,33.35-64.69,75.56-64.69c27.73,0.51,54.81,8.9,78,24.14l-19.3,34.58c-20.52-12.22-42.21-20.1-59.86-20.1
		c-18.88,0-29.75,8.86-29.75,21.32v0.8c0,15.27,22.91,21.68,47.83,29.75c30.97,9.65,65.91,23.7,65.91,61.88v0.79
		C985.02,275.13,950.45,297.25,906.41,297.25L906.41,297.25z"/>
	<path class="st1" d="M397.43,442.94c-30.27-0.4-54.61-25.06-54.61-55.34c0-30.56,24.78-55.34,55.34-55.34
		c30.51,0,55.28,24.7,55.35,55.22c0.01,0.39,0.01,0.8,0.01,1.19c0,29.99-24.32,54.31-54.31,54.31
		C398.63,442.97,398.01,442.96,397.43,442.94L397.43,442.94L397.43,442.94z M362.63,383.95c-0.02,0.57,0.04,1.14,0.04,1.71
		c0,0.5-0.03,1.02-0.03,1.53c0,20.24,16.41,36.65,36.65,36.65c0.01,0,0.02,0,0.03,0c19.94-0.04,36.08-16.22,36.08-36.16
		c0-0.57-0.03-1.14-0.04-1.71C434.23,338.09,363.94,339.71,362.63,383.95L362.63,383.95z"/>
	<path class="st1" d="M567.37,394.8c0,31.95-18.33,47.95-46,47.95c-27.67,0-45.51-16.07-45.51-47.04v-61.57h18.82v61.09
		c0,19.85,10.26,30.54,27.06,30.54c16.8,0,26.88-10.08,26.88-29.81v-61.82h18.82v60.66H567.37L567.37,394.8z"/>
	<polygon class="st1" points="639.64,441.11 620.7,441.11 620.7,351.55 586.8,351.55 586.8,334.14 673.6,334.14 673.6,351.55 
		639.7,351.55 639.7,441.11 639.64,441.11 	"/>
	<polygon class="st1" points="694.62,334.14 713.43,334.14 713.43,424 769.69,424 769.69,441.11 694.62,441.11 694.62,334.14 	"/>
	<polygon class="st1" points="869.75,350.94 809.22,350.94 809.22,378.74 862.85,378.74 862.85,395.54 809.22,395.54 809.22,424.25 
		870.3,424.25 870.3,441.05 790.34,441.05 790.34,334.14 869.75,334.14 869.75,350.94 	"/>
	<polygon class="st1" points="939.27,441.11 920.33,441.11 920.33,351.55 886.43,351.55 886.43,334.14 973.24,334.14 973.24,351.55 
		939.33,351.55 939.33,441.11 939.27,441.11 	"/>
	<path class="st2" d="M987.3,404.95c3.44,0,6.79,0.88,10.07,2.65c3.27,1.76,5.83,4.29,7.65,7.57c1.82,3.29,2.74,6.72,2.74,10.27
		c0,3.53-0.9,6.93-2.7,10.18c-1.8,3.26-4.32,5.79-7.57,7.59c-3.25,1.81-6.65,2.7-10.19,2.7c-3.55,0-6.95-0.9-10.2-2.7
		c-3.25-1.8-5.78-4.33-7.59-7.59c-1.81-3.25-2.71-6.65-2.71-10.18c0-3.56,0.92-6.98,2.75-10.27c1.84-3.28,4.4-5.81,7.67-7.57
		C980.5,405.83,983.85,404.95,987.3,404.95L987.3,404.95z M987.3,408.34c-2.88,0-5.69,0.74-8.41,2.21
		c-2.72,1.47-4.86,3.59-6.39,6.33c-1.54,2.74-2.31,5.6-2.31,8.56c0,2.95,0.76,5.78,2.27,8.49c1.51,2.7,3.62,4.82,6.34,6.33
		c2.71,1.51,5.55,2.27,8.5,2.27c2.95,0,5.78-0.76,8.5-2.27c2.71-1.51,4.83-3.62,6.33-6.33c1.5-2.7,2.25-5.53,2.25-8.49
		c0-2.96-0.77-5.82-2.3-8.56c-1.53-2.74-3.66-4.85-6.39-6.33C992.95,409.08,990.15,408.34,987.3,408.34L987.3,408.34z M978.3,436.74
		v-22.01h7.58c2.59,0,4.47,0.2,5.62,0.61c1.17,0.41,2.08,1.11,2.78,2.13c0.68,1.01,1.03,2.09,1.03,3.22c0,1.6-0.57,3.01-1.73,4.2
		c-1.15,1.19-2.68,1.86-4.58,2.01c0.78,0.32,1.41,0.71,1.87,1.17c0.89,0.86,1.97,2.32,3.26,4.36l2.69,4.31h-4.32l-1.96-3.47
		c-1.54-2.73-2.79-4.45-3.73-5.13c-0.65-0.5-1.59-0.75-2.84-0.74h-2.09v9.34H978.3L978.3,436.74z M981.86,424.35h4.32
		c2.07,0,3.47-0.31,4.22-0.92c0.75-0.61,1.13-1.43,1.13-2.43c0-0.65-0.19-1.23-0.55-1.74c-0.36-0.52-0.86-0.9-1.5-1.15
		c-0.65-0.25-1.83-0.38-3.58-0.38h-4.05V424.35L981.86,424.35z"/>
</g>
</svg>
