<?xml version="1.0" encoding="UTF-8"?>
<!-- Generator: Adobe Illustrator 14.0.0, SVG Export Plug-In . SVG Version: 6.00 Build 43363)  -->
<!DOCTYPE svg PUBLIC "-//W3C//DTD SVG 1.1//EN" "http://www.w3.org/Graphics/SVG/1.1/DTD/svg11.dtd">
<svg version="1.1" id="Layer_1" xmlns="http://www.w3.org/2000/svg" xmlns:xlink="http://www.w3.org/1999/xlink" x="0px" y="0px" width="300px" height="155.282px" viewBox="0 0 300 155.282" enable-background="new 0 0 300 155.282" xml:space="preserve">
<polyline fill="#F68B22" points="284.977,148.866 284.977,86.395 195.284,148.866 284.977,148.866"/>
<polyline fill="#F68B22" points="3.725,148.728 277.778,86.115 3.725,86.115 3.725,148.728"/>
<path fill="#00539B" d="M3.64,79.83V4.747H34c13.028,0,23.784,3.431,23.784,19.444c0,8.637-4.642,14.869-13.925,16.539v0.208  c12.116,1.556,15.285,8.733,15.285,19.028c0,19.029-18.011,19.864-25.26,19.864H3.64 M20.745,68.287h9.515  c3.625,0,11.782-0.106,11.782-10.609c0-6.656-2.721-10.708-11.324-10.708h-9.973V68.287z M20.745,35.423h11.44  c3.744,0,8.948-2.291,8.948-9.568c0-5.513-4.078-9.568-9.854-9.568H20.745V35.423z"/>
<path fill="#00539B" d="M90.511,74.521h-0.222c-3.171,4.684-7.483,6.349-13.481,6.349c-7.594,0-14.278-4.157-14.278-11.443V27.309  H78.5v36.398c0,4.685,0.909,8.107,6.01,8.107c5.095,0,6.001-3.422,6.001-8.107V27.309h15.971v42.118c0,3.434,0.228,6.97,0.57,10.4  H90.511V74.521"/>
<path fill="#00539B" d="M140.695,79.83v-5.825h-0.228c-2.943,5.095-7.36,6.868-13.48,6.868c-16.535,0-15.968-16.849-15.968-27.668  c0-10.605-0.458-26.933,15.629-26.933c5.778,0,9.745,1.562,13.033,6.032h0.225V4.747h15.968V79.83H140.695 M139.906,53.099  c0-10.5,0.111-17.781-6.462-17.781c-6.907,0-6.796,7.28-6.796,17.781c0,13.212,1.02,18.717,6.796,18.717  C138.882,71.816,139.906,66.312,139.906,53.099z"/>
<path fill="#00539B" d="M205.733,27.309v54.704c0,3.642,0.217,19.692-21.753,19.692c-11.896,0-22.091-2.81-22.43-15.604h15.632  c0,2.188,0.339,4.058,1.355,5.308c1.023,1.352,2.835,2.081,5.326,2.081c3.969,0,5.893-5.135,5.893-8.733v-10.09l-0.226-1.701  c-2.376,4.055-6.906,6.132-12.124,6.132c-17.553,0-16.767-14.766-16.767-26.62c0-11.54,0.226-26.209,16.881-26.209  c5.661,0,10.539,2.294,12.797,7.178h0.23v-6.138H205.733 M183.183,70.056c5.781,0,6.574-5.513,6.574-16.641  c0-11.543-0.567-18.097-6.454-18.097c-6.004,0-7.03,3.849-7.03,19.866C176.272,60.069,175.486,70.056,183.183,70.056z"/>
<path fill="#00539B" d="M226.229,55.911c0,6.237,0.23,15.601,7.252,15.601c5.662,0,6.799-4.998,6.799-9.363h16.196  c-0.223,5.722-2.26,10.4-6.114,13.626c-3.742,3.22-9.407,5.095-16.881,5.095c-20.618,0-23.343-11.543-23.343-27.973  c0-14.353,2.271-26.628,23.343-26.628c21.525,0,23.904,12.792,23.334,29.643H226.229 M240.845,47.693  c0-5.095,0.225-12.375-7.363-12.375c-7.365,0-7.252,7.901-7.252,12.375H240.845z"/>
<path fill="#00539B" d="M261.007,27.309v-8.314l15.974-6.554v14.868h8.272v9.052h-8.272v28.079c0,3.955-0.11,6.548,5.098,6.548  c1.018,0,2.043,0,2.833-0.206v9.044c-2.152,0.208-4.419,0.524-8.27,0.524c-13.822,0-15.635-8.426-15.635-11.646V27.309"/>
<path fill="#00539B" d="M288.852,76.088c0-2.368,1.924-4.117,4.194-4.117c2.245,0,4.166,1.75,4.166,4.117  c0,2.388-1.921,4.137-4.166,4.137C290.775,80.225,288.852,78.476,288.852,76.088 M293.046,79.54c1.864,0,3.337-1.465,3.337-3.452  c0-1.955-1.473-3.422-3.337-3.422c-1.892,0-3.364,1.467-3.364,3.422C289.682,78.075,291.154,79.54,293.046,79.54z M292.168,78.476  h-0.718V73.72h1.812c1.12,0,1.682,0.413,1.682,1.353c0,0.852-0.541,1.223-1.233,1.312l1.354,2.091h-0.809l-1.258-2.063h-0.829  V78.476z M293.032,75.806c0.609,0,1.156-0.042,1.156-0.775c0-0.589-0.533-0.701-1.037-0.701h-0.983v1.476H293.032z"/>
</svg>