<svg xmlns="http://www.w3.org/2000/svg" height="163.51" viewBox="0 0 289.68701 163.51456" width="289.69"><g transform="translate(-5.6907 -4.1942)"><path fill="#0360b0" d="m7.048 154.51-0.301-149.02h287.38l0.304 149.02h-287.39z"/><g><path fill="#fff" d="m9.7637 8.8027 0.30078 142.7h281.36l-0.30469-142.7h-281.35zm4.5215 4.2148h272.01v133.06h-272.01v-133.06z"/><path d="m25.507 133.1c42.973-19.812 79.839-28.264 123.27-28.264 43.064 0 90.488 10.755 126.86 28.77l1.6 0.793 2.396 1.188-1.154 2.41-0.773 1.607-10.555 21.977-0.76 1.578-1.138 2.367-2.405-1.062-1.604-0.706c-35.98-15.865-75.493-24.604-111.26-24.604-29.675 0-78.373 8.486-110.17 24.216l-1.656 0.819-2.483 1.229-1.179-2.506-0.785-1.671-10.403-22.126-0.775-1.646-1.159-2.469 2.478-1.143 1.653-0.757z" stroke="#fff" stroke-width="2.2614" fill="#eb0029"/><path fill="#fff" d="m148.78 107.55c-43.016 0-79.544 8.3756-122.14 28.016l-1.6523 0.75781 0.77344 1.6465 10.404 22.129 0.78516 1.6699 1.6562-0.82031c32.167-15.912 81.392-24.498 111.38-24.498 36.132 0 76.036 8.82 112.36 24.834l1.6035 0.70703 0.75977-1.5781 10.553-21.979 0.77149-1.6074-1.5996-0.79102c-36.008-17.836-82.981-28.486-125.65-28.486zm-0.002 1.8047c37.09 0 85.341 8.7298 124.85 28.301l-10.557 21.977c-36.187-15.955-76.296-24.988-113.08-24.988-29.251 0-78.706 8.1285-112.18 24.688l-10.404-22.129c47.345-21.826 84.285-27.848 121.38-27.848z"/><path fill="#091665" d="m163.71 32.17c-17.488 0-31.664 14.152-31.664 31.611s14.176 31.611 31.664 31.611c17.486 0 31.666-14.15 31.666-31.611 0-17.459-14.18-31.611-31.666-31.611zm71.584 0c-17.117 0-31.025 13.566-31.611 30.512-0.057 0.324-0.0975 0.65233-0.10352 0.98633h-0.0625v48.994h0.10547c0.51 4.039 4.8746 7.1934 10.186 7.1934 5.311 0 9.6755-3.1544 10.186-7.1934h0.10352v-19.34c3.484 1.316 7.2473 2.0703 11.197 2.0703 17.487 0 31.666-14.153 31.666-31.613 0-17.457-14.18-31.609-31.666-31.609zm-197.9 0.0332c-5.604 0-10.15 3.5141-10.229 7.8711h-0.0625v48.996h0.10547c0.511 4.035 4.8755 7.1914 10.186 7.1914 5.312 0 9.6736-3.1564 10.184-7.1914h0.10742v-48.996h-0.06445c-0.078-4.357-4.6226-7.8711-10.227-7.8711zm35.17 0c-5.605 0-10.151 3.5141-10.229 7.8711h-0.0625v48.996h0.10547c0.509 4.035 4.8745 7.1914 10.186 7.1914 5.31 0 9.6756-3.1564 10.184-7.1914h0.10547v-17.049h18.209v17.049h0.10351c0.509 4.035 4.8766 7.1914 10.186 7.1914 5.312 0 9.6746-3.1564 10.184-7.1914h0.10742v-48.996h-0.0644c-0.078-4.357-4.6235-7.8711-10.229-7.8711-5.603 0-10.149 3.5141-10.227 7.8711h-0.0625v15.125h-18.207v-15.125h-0.0625c-0.079-4.357-4.6236-7.8711-10.227-7.8711zm162.73 19.49c6.625 0 11.994 5.3616 11.994 11.975 0 6.613-5.3691 11.975-11.994 11.975-6.625 0-11.996-5.3616-11.996-11.975 0-6.613 5.3711-11.975 11.996-11.975zm-71.584 0.15625c6.601 0 11.951 5.3406 11.951 11.932 0 6.589-5.3502 11.934-11.951 11.934-6.601 0-11.951-5.3446-11.951-11.934 0-6.591 5.3502-11.932 11.951-11.932z"/><path fill="#fff" d="m167.63 30.062c-17.486 0-31.664 14.153-31.664 31.611s14.178 31.611 31.664 31.611c17.49 0 31.666-14.153 31.666-31.611s-14.176-31.611-31.666-31.611zm72.488 0c-17.116 0-31.025 13.567-31.609 30.512-0.059 0.325-0.0995 0.65133-0.10352 0.98633h-0.0625v48.998h0.10547c0.509 4.035 4.8726 7.1914 10.184 7.1914 5.313 0 9.6755-3.1564 10.186-7.1914h0.10547v-19.344c3.485 1.317 7.2483 2.0703 11.195 2.0703 17.487 0 31.666-14.153 31.666-31.611-0.002-17.458-14.177-31.611-31.666-31.611zm-198.81 0.034c-5.604 0-10.15 3.5151-10.229 7.8711h-0.0625v48.996h0.10742c0.51 4.038 4.8726 7.1895 10.184 7.1895 5.309 0 9.6756-3.1515 10.184-7.1895h0.10742v-48.996h-0.0625c-0.078-4.356-4.625-7.871-10.229-7.871zm35.168 0c-5.604 0-10.148 3.5151-10.227 7.8711h-0.0625v48.996h0.10742c0.509 4.038 4.8716 7.1895 10.182 7.1895 5.312 0 9.6755-3.1515 10.186-7.1895h0.10547v-17.049h18.207v17.049h0.10742c0.509 4.038 4.8726 7.1895 10.184 7.1895 5.31 0 9.6746-3.1515 10.184-7.1895h0.10743v-48.996h-0.0625c-0.078-4.356-4.6245-7.8711-10.229-7.8711-5.604 0-10.15 3.5151-10.229 7.8711h-0.0625v15.129h-18.207v-15.129h-0.0625c-0.077-4.356-4.6245-7.8711-10.229-7.8711zm163.64 19.492c6.623 0 11.992 5.3607 11.992 11.973 0 6.614-5.3682 11.975-11.992 11.975-6.625 0-11.996-5.3606-11.996-11.975 0-6.612 5.3711-11.973 11.996-11.973zm-72.488 0.15234c6.604 0 11.953 5.3436 11.953 11.934 0 6.591-5.3511 11.934-11.953 11.934-6.601-0.001-11.951-5.3426-11.951-11.934 0-6.59 5.3532-11.934 11.951-11.934zm-13.277 66.605-0.20899 6.6777c-0.047 1.53-0.0298 3.0405 1.1172 4.2285 0.964 1.007 2.5114 1.4023 3.9024 1.4453 1.387 0.044 2.9624-0.25622 3.9844-1.1992 1.219-1.114 1.33-2.6244 1.377-4.1524l0.20899-6.6758-3.0918-0.0996-0.19726 6.2539c-0.047 1.544-0.20832 3.2271-2.1953 3.1641-1.988-0.063-2.048-1.7499-2-3.2949l0.19336-6.252-3.0898-0.0957zm-17.904 0.12305-3.375 0.14453-4.0508 12.072 3.2793-0.14258 0.72851-2.0996 4.2578-0.18164 0.86523 2.0293 3.2949-0.14454-5-11.678zm42.756 1.3301-1.4414 11.805 3.0723 0.375 0.55469-4.5391 0.0332 0.002 2.3438 4.8965 3.8281 0.46484-3.125-5.2891c1.716-0.094 2.7971-1.3935 2.9941-3.0215 0.309-2.521-1.3261-3.8478-3.6641-4.1328l-4.5957-0.56055zm-63.682 0.70117-8.1406 1.0879 0.3457 2.5938 2.5352-0.33984 1.2285 9.1894 3.0684-0.41016-1.2285-9.1875 2.5371-0.33593-0.3457-2.5977zm19.4 1.709 1.4258 3.7227-2.5703 0.11328 1.1133-3.834 0.0312-0.002zm47.068 0.31446 0.29883 0.0371c1.004 0.123 2.1091 0.44751 1.9531 1.7285-0.158 1.285-1.3075 1.3359-2.3125 1.2129l-0.29882-0.0351 0.35937-2.9434zm23.182 1.1035-6.8516 10.734 3.2168 0.65039 1.2188-1.8613 4.1758 0.8457 0.3457 2.1777 3.2344 0.65234-2.0293-12.531-3.3106-0.66797zm-113.32 0.57032c-0.67062-0.0305-1.3412 0.0156-1.9277 0.14062-2.331 0.496-3.6866 2.3939-3.1836 4.7539 0.48 2.249 1.8376 2.4753 3.8516 2.6113 0.688 0.048 1.9411 0.0885 2.1211 0.9375 0.175 0.81601-0.50875 1.3305-1.2188 1.4805-1.035 0.221-2.0444-0.12886-2.9414-0.63086l-0.7793 2.7129c1.367 0.579 2.91 0.76613 4.375 0.45313 1.175-0.249 2.3253-0.83187 3.0723-1.7969 0.759-0.98501 0.78216-2.2297 0.53516-3.3867-0.402-1.876-1.8268-2.4285-3.5508-2.5625l-0.82031-0.0645c-0.559-0.058-1.4331-0.14522-1.5781-0.82422-0.138-0.647 0.53289-1.1271 1.0879-1.2461 0.741-0.159 1.5169-0.00025 2.1719 0.34375l0.70508-2.5996c-0.58-0.184-1.2493-0.29176-1.9199-0.32226zm114.21 3.3555 0.0312 0.006 0.48438 3.9551-2.5215-0.50976 2.0059-3.4512zm19.213 0.50196-3.3047 11.412 2.9707 0.85742 2.0273-6.9941 0.0293 0.0117 3.416 8.5625 2.9726 0.86132 3.3066-11.414-2.9707-0.85937-2.0234 6.9785-0.0293-0.008-3.4219-8.5508-2.9727-0.85742zm-153.18 1.0039-6.5 1.9043 3.3516 11.406 6.5-1.9023-0.73828-2.5117-3.5293 1.0312-0.57812-1.9648 3.3477-0.98242-0.73633-2.5098-3.3496 0.98242-0.56055-1.9062 3.5312-1.0352-0.73828-2.5117zm177.49 6.7129-0.95703 2.4316 2.3789 0.93165-3.3906 8.6191 2.8789 1.127 3.3867-8.6191 2.3809 0.93164 0.95703-2.4336-7.6348-2.9883zm-199.06 0.75c-0.7345-0.0664-1.5401 0.0811-2.3613 0.4043l-4.3047 1.6973 4.377 11.062 2.8789-1.1367-1.6816-4.2539 0.0293-0.0137 4.4004 3.1856 3.5859-1.416-5.2754-3.1562c1.462-0.898 1.7925-2.5551 1.1895-4.0801-0.58438-1.4769-1.6137-2.1824-2.8379-2.293zm-1.543 2.7617c0.60175-0.0556 1.1537 0.1336 1.4512 0.88672 0.476 1.203-0.51212 1.793-1.4531 2.166l-0.2793 0.10937-1.0898-2.7578 0.2793-0.11133c0.35288-0.13875 0.73075-0.2596 1.0918-0.29297z"/></g></g></svg>
