<svg xmlns="http://www.w3.org/2000/svg" viewBox="0 0 223 80"><defs><style>.cls-1{fill:none;}.cls-2{fill:#274c69;}</style></defs><g id="Capa_2" data-name="Capa 2"><g id="Capa_1-2" data-name="Capa 1"><g id="Capa_2-2" data-name="Capa 2"><rect class="cls-1" width="223" height="80"/><path class="cls-2" d="M31.16,72.78a5.15,5.15,0,0,1-2.36.79l3.65,6.1H30.93l-3.65-6.1H21v6.1H19.64V65.23h8.5a4.55,4.55,0,0,1,2.73.58,4.34,4.34,0,0,1,1.89,3.58A4.38,4.38,0,0,1,31.16,72.78ZM30.25,67c-.51-.31-1-.44-2.69-.44H21v5.69h6.57c1.53,0,2.2-.1,2.79-.52a3,3,0,0,0,1.1-2.4A2.61,2.61,0,0,0,30.25,67Z"/><path class="cls-2" d="M46.75,79.67V65.25h11.9v1.36H48v5h5.79v1.32H48v5.47H59.11v1.32Z"/><path class="cls-2" d="M78.44,80a10.88,10.88,0,0,1-3.67-.62A8.55,8.55,0,0,1,71.36,77l.91-1a7.88,7.88,0,0,0,6.29,2.57c1.94,0,5.54-.5,5.54-3.11,0-1.88-1.92-2.63-3.25-2.75-.8-.08-2.72-.06-3.82-.08-2.19,0-4.62-.91-4.62-3.48,0-2.17,1.81-3.44,3.71-4a10.13,10.13,0,0,1,2.73-.35A9.11,9.11,0,0,1,84.6,67l-.81,1a8.63,8.63,0,0,0-5.17-1.76,7.84,7.84,0,0,0-1.86.19c-1.35.31-3,1.2-3,2.81,0,1.78,1.9,2.15,3.31,2.19,1.15,0,2.86,0,3.93.11,2.42.2,4.47,1.55,4.47,4C85.43,79.07,81.23,80,78.44,80Z"/><path class="cls-2" d="M105.53,80a7.52,7.52,0,1,1,7.72-7.51A7.55,7.55,0,0,1,105.53,80Zm0-13.74A6.27,6.27,0,0,0,99,72.39a6.47,6.47,0,1,0,6.5-6.15Z"/><path class="cls-2" d="M138.37,72.78a5.15,5.15,0,0,1-2.36.79l3.65,6.1h-1.53l-3.63-6.1h-6.29v6.1h-1.36V65.23h8.5a4.57,4.57,0,0,1,2.73.58A4.34,4.34,0,0,1,140,69.39,4.38,4.38,0,0,1,138.37,72.78ZM137.46,67c-.5-.31-1-.44-2.69-.44h-6.56v5.69h6.56c1.53,0,2.2-.1,2.78-.52a3,3,0,0,0,1.11-2.4A2.61,2.61,0,0,0,137.46,67Z"/><path class="cls-2" d="M159.42,66.55V79.67H158.1V66.55h-5.54V65.23h12.31v1.32Z"/><path class="cls-2" d="M183.85,80a11,11,0,0,1-3.68-.62,8.66,8.66,0,0,1-3.4-2.34l.91-1A7.89,7.89,0,0,0,184,78.66c1.94,0,5.53-.5,5.53-3.11,0-1.88-1.91-2.63-3.25-2.75-.79-.08-2.71-.06-3.81-.08-2.19,0-4.63-.91-4.63-3.48,0-2.17,1.82-3.44,3.72-4a10.13,10.13,0,0,1,2.73-.35A9,9,0,0,1,190,67l-.81,1A8.58,8.58,0,0,0,184,66.22a7.84,7.84,0,0,0-1.86.19c-1.36.31-3,1.2-3,2.81,0,1.78,1.9,2.15,3.31,2.19,1.14,0,2.86,0,3.93.11,2.41.2,4.47,1.55,4.47,4C190.84,79.07,186.64,80,183.85,80Z"/><polygon class="cls-2" points="91.79 0 95.47 10.36 98.75 4.97 91.79 0"/><path class="cls-2" d="M95.25,9.71l1.06,3c2.9-.14,5.86-.21,8.86-.21s6.2.08,9.22.23l.94-3q-5-.32-10.16-.32c-3.38,0-6.69.11-9.92.31M52.31,21.17c11.1-4.27,25.51-7.32,41.59-8.31l-1.05-3c-17.16,1.37-31.7,5.54-40.54,11.29M117.7,9.89l-.92,3c16,1,30.35,4,41.39,8.29-8.71-5.74-23.26-9.9-40.47-11.28"/><polygon class="cls-2" points="118.73 0.03 115.05 10.55 111.78 4.99 118.73 0.03"/><rect class="cls-2" x="103.76" y="0.62" width="2.9" height="2.9" transform="translate(29.45 75.1) rotate(-45.07)"/><rect class="cls-2" x="100.89" y="3.53" width="2.9" height="2.9" transform="translate(26.48 73.86) rotate(-45.03)"/><rect class="cls-2" x="106.72" y="3.53" width="2.9" height="2.9" transform="translate(28.2 77.99) rotate(-45.03)"/><path class="cls-2" d="M34.25,45H23.53V55.47h-3.6V30.8H34.25c4.36,0,7.21,2.61,7.21,7S38.58,45,34.25,45Zm0-10.59H23.53v7H34.25c2.31,0,3.63-1.13,3.63-3.51S36.63,34.4,34.25,34.4Z"/><path class="cls-2" d="M68.36,55.47l-3.54-8.14H53.75l-3.67,8.14H46.17L57.38,30.73h4L72.4,55.47ZM59.3,35.1l-3.9,8.59h7.8Z"/><path class="cls-2" d="M80.28,55.47V30.6h3.6V51.86h15v3.61Z"/><path class="cls-2" d="M128.14,55.47l-3.54-8.14H113.52l-3.67,8.14H106l11.21-24.74h4l11,24.74ZM119.08,35.1l-3.9,8.59H123Z"/><path class="cls-2" d="M151,56.06c-7.61,0-13.89-5.09-13.89-13,0-7.48,5.79-12.87,13.16-12.87a17,17,0,0,1,11.91,5.06l-2.68,2.29c-2.64-2.22-5.49-3.74-9-3.74-5.42,0-9.82,3.74-9.82,9.32,0,6,5,9.3,10.58,9.3,3.87,0,6.29-1.29,9-4L162.56,51A14.59,14.59,0,0,1,151,56.06Z"/><path class="cls-2" d="M169.62,55.47V30.76h20.3V34.4h-16.7v6.45h8.4v3.57h-8.4v7.44h17.33v3.61Z"/><path class="cls-2" d="M199.45,64.45a3.92,3.92,0,1,1-3.91,3.91A3.92,3.92,0,0,1,199.45,64.45Zm0,7.26a3.35,3.35,0,1,0-3.34-3.35A3.34,3.34,0,0,0,199.45,71.71Zm-.85-1.11H198V66.09h1.73c1,0,1.42.45,1.42,1.26a1.21,1.21,0,0,1-1.13,1.28l1.34,2h-.64l-1.34-2h-.81Zm0-2.48h.72c.62,0,1.3,0,1.3-.77,0-.58-.53-.75-1-.75h-1Z"/></g></g></g></svg>