<?xml version="1.0" encoding="UTF-8"?>
<svg xmlns="http://www.w3.org/2000/svg" viewBox="0 0 1182 792" fill="#000">
  <path d="M180.98 774.01v-51.97h-18.7v-11.99h51.02v11.99h-18.6v51.97h-13.71Zm71.16 0v-28.19c0-6.42-3.36-8.44-8.63-8.44-4.7 0-8.44 2.68-10.55 5.47v31.17h-12.18v-63.96h12.18v23.69c2.97-3.55 8.73-7.19 16.3-7.19 10.17 0 15.05 5.56 15.05 14.58v32.89h-12.18Zm20.34-23.2c0-13.43 9.88-24.26 23.97-24.26s23.21 10.36 23.21 25.51v2.68h-34.43c.77 5.85 5.47 10.74 13.33 10.74 3.93 0 9.4-1.73 12.37-4.6l5.37 7.86c-4.6 4.22-11.89 6.43-19.08 6.43-14.1 0-24.74-9.5-24.74-24.36Zm23.98-14.58c-7.57 0-10.83 5.66-11.41 10.26h22.82c-.29-4.41-3.36-10.26-11.41-10.26Zm66.85 31.84v23.59h-12.18V727.7h12.18v5.85c3.55-4.5 8.63-7 14.29-7 11.89 0 20.52 8.83 20.52 24.26s-8.63 24.36-20.52 24.36c-5.47 0-10.55-2.31-14.29-7.1Zm22.15-17.26c0-7.96-4.7-13.43-11.7-13.43-3.93 0-8.44 2.3-10.45 5.27v16.4c2.01 2.88 6.52 5.27 10.45 5.27 7 0 11.7-5.47 11.7-13.52Zm17.66 0c0-13.14 9.21-24.26 24.45-24.26s24.55 11.13 24.55 24.26-9.21 24.36-24.55 24.36-24.45-11.13-24.45-24.36Zm36.34 0c0-7.19-4.32-13.43-11.89-13.43s-11.8 6.24-11.8 13.43 4.22 13.52 11.8 13.52 11.89-6.24 11.89-13.52Zm61.39 23.2-9.78-31.55-9.78 31.55h-13.04l-14.1-46.32h12.66l8.63 31.17 10.17-31.17h10.83l10.17 31.17 8.63-31.17h12.66l-14.1 46.32h-12.94Zm29.16-23.2c0-13.43 9.88-24.26 23.97-24.26s23.21 10.36 23.21 25.51v2.68h-34.43c.77 5.85 5.47 10.74 13.33 10.74 3.93 0 9.4-1.73 12.37-4.6l5.37 7.86c-4.6 4.22-11.89 6.43-19.08 6.43-14.1 0-24.74-9.5-24.74-24.36Zm23.98-14.58c-7.57 0-10.83 5.66-11.41 10.26h22.82c-.29-4.41-3.36-10.26-11.41-10.26Zm31.08 37.78v-46.32h12.18v6.33c3.26-4.13 9.02-7.48 14.77-7.48v11.89c-.86-.19-2.01-.29-3.36-.29-4.03 0-9.4 2.31-11.41 5.28v30.59h-12.18Zm54.19-23.2c0-13.14 9.21-24.26 24.46-24.26s24.55 11.13 24.55 24.26-9.21 24.36-24.55 24.36-24.46-11.13-24.46-24.36Zm36.35 0c0-7.19-4.32-13.43-11.89-13.43s-11.8 6.24-11.8 13.43 4.22 13.52 11.8 13.52 11.89-6.24 11.89-13.52Zm23.4 23.2v-35.67h-7.67v-10.65h7.67v-2.49c0-9.88 6.33-16.11 15.63-16.11 4.41 0 9.11 1.15 12.08 4.31l-4.61 7.19c-1.25-1.25-2.88-1.92-5.08-1.92-3.36 0-5.75 2.21-5.75 6.52v2.49h9.4v10.65h-9.4V774h-12.27Zm82.67 0v-28.19c0-6.42-3.36-8.44-8.63-8.44-4.7 0-8.44 2.68-10.55 5.47v31.17h-12.18v-63.96h12.18v23.69c2.97-3.55 8.72-7.19 16.3-7.19 10.17 0 15.06 5.56 15.06 14.58v32.89h-12.18Zm20.35-23.2c0-13.14 9.2-24.26 24.45-24.26s24.55 11.13 24.55 24.26-9.21 24.36-24.55 24.36-24.45-11.13-24.45-24.36Zm36.34 0c0-7.19-4.32-13.43-11.89-13.43s-11.79 6.24-11.79 13.43 4.22 13.52 11.79 13.52 11.89-6.24 11.89-13.52Zm78.16 23.2v-29.25c0-4.31-1.92-7.38-6.9-7.38-4.32 0-7.86 2.88-9.59 5.37v31.26h-12.27v-29.25c0-4.31-1.92-7.38-6.9-7.38-4.22 0-7.77 2.88-9.59 5.47v31.17H859.1V727.7h12.18v6.04c1.92-2.78 8.06-7.19 15.15-7.19s11.13 3.16 12.85 8.44c2.68-4.22 8.82-8.44 15.92-8.44 8.54 0 13.62 4.51 13.62 14v33.47h-12.27Zm20.35-23.2c0-13.43 9.88-24.26 23.97-24.26s23.21 10.36 23.21 25.51v2.68h-34.43c.77 5.85 5.47 10.74 13.33 10.74 3.93 0 9.4-1.73 12.37-4.6l5.37 7.86c-4.6 4.22-11.89 6.43-19.08 6.43-14.1 0-24.74-9.5-24.74-24.36Zm23.97-14.58c-7.57 0-10.84 5.66-11.41 10.26h22.82c-.29-4.41-3.36-10.26-11.41-10.26Zm29.17 31.07c0-4.22 3.55-7.77 7.77-7.77s7.77 3.55 7.77 7.77-3.55 7.77-7.77 7.77-7.77-3.55-7.77-7.77ZM0 342.79V175.9h20.77v148.37h77.56v18.52H0Zm109.6-60.55c0-35.03 23.02-63.3 59.8-63.3s59.8 28.27 59.8 63.3-23.02 63.55-59.8 63.55-59.8-28.52-59.8-63.55Zm99.83 0c0-24.52-14.26-46.54-40.03-46.54s-40.28 22.02-40.28 46.54 14.51 46.79 40.28 46.79 40.03-22.02 40.03-46.79Zm126.85 60.55v-79.06c0-21.27-10.76-28.02-27.02-28.02-14.76 0-28.77 9.01-35.78 18.76v88.32h-18.76V221.94h18.76v17.52c8.51-10.01 25.02-20.52 43.04-20.52 25.27 0 38.53 12.76 38.53 39.03v84.82h-18.77Zm51.05 31.03 9.51-14.01c10.01 12.01 22.02 16.51 39.28 16.51 20.02 0 38.78-9.76 38.78-36.28v-17.26c-8.76 12.26-23.52 21.52-40.53 21.52-31.53 0-53.79-23.52-53.79-62.55s22.02-62.8 53.79-62.8c16.26 0 30.78 8.01 40.53 21.27v-18.27h18.77V339.3c0 40.03-28.02 52.54-57.55 52.54-20.52 0-34.53-4-48.79-18.02Zm87.57-65.81v-52.79c-6.51-10.51-21.02-19.52-36.03-19.52-24.27 0-38.78 19.27-38.78 46.04s14.51 46.04 38.78 46.04c15.01 0 29.52-9.26 36.03-19.77Zm51.3 34.78V175.9h18.76v64.3c9.76-13.26 24.27-21.27 40.78-21.27 31.53 0 53.8 25.02 53.8 63.55s-22.27 63.3-53.8 63.3c-17.02 0-31.78-8.76-40.78-21.02v18.01H526.2Zm54.79-13.76c24.52 0 39.04-19.77 39.04-46.54s-14.51-46.79-39.04-46.79c-14.76 0-29.52 9.01-36.03 19.52v54.79c6.51 10.51 21.27 19.02 36.03 19.02Zm84.08 13.76V221.94h18.76v19.52c9.76-12.76 23.77-22.02 40.29-22.02v19.27c-2.25-.5-4.5-.75-7.51-.75-11.51 0-27.27 9.51-32.78 19.27v85.57h-18.76Zm74.31-150.62c0-7 5.75-12.76 12.51-12.76s12.76 5.75 12.76 12.76-5.75 12.51-12.76 12.51-12.51-5.5-12.51-12.51Zm3.25 150.62V221.94h18.77v120.85h-18.77Zm138.87 0v-18.01c-9.01 12.26-23.77 21.02-40.78 21.02-31.53 0-53.79-24.02-53.79-63.3s22.02-63.55 53.79-63.55c16.26 0 31.02 8.01 40.78 21.27v-64.3h18.77v166.89H881.5Zm0-32.78v-54.79c-6.76-10.51-21.27-19.52-36.28-19.52-24.27 0-38.78 20.02-38.78 46.79s14.51 46.54 38.78 46.54c15.02 0 29.53-8.51 36.28-19.02Zm51.04 63.81 9.51-14.01c10.01 12.01 22.02 16.51 39.28 16.51 20.02 0 38.78-9.76 38.78-36.28v-17.26c-8.76 12.26-23.52 21.52-40.53 21.52-31.53 0-53.79-23.52-53.79-62.55s22.02-62.8 53.79-62.8c16.26 0 30.77 8.01 40.53 21.27v-18.27h18.77V339.3c0 40.03-28.02 52.54-57.54 52.54-20.52 0-34.53-4-48.79-18.02Zm87.57-65.81v-52.79c-6.5-10.51-21.01-19.52-36.03-19.52-24.27 0-38.78 19.27-38.78 46.04s14.51 46.04 38.78 46.04c15.01 0 29.52-9.26 36.03-19.77Zm44.3-25.77c0-35.03 25.02-63.3 59.55-63.3 36.53 0 58.05 28.52 58.05 64.8v4.75h-97.83c1.5 22.77 17.52 41.78 43.54 41.78 13.76 0 27.77-5.5 37.28-15.26l9.01 12.26c-12.01 12.01-28.27 18.51-48.04 18.51-35.78 0-61.55-25.77-61.55-63.55Zm59.29-47.79c-25.77 0-38.53 21.77-39.53 40.28h79.32c-.25-18.01-12.26-40.28-39.78-40.28ZM310.52 515.73v-55.64h36.46v6.17h-29.53v17.94h28.95v6.17h-28.95v25.36h-6.92Zm48.7-50.21c0-2.34 1.92-4.26 4.17-4.26s4.26 1.92 4.26 4.26-1.92 4.17-4.26 4.17-4.17-1.84-4.17-4.17Zm1.09 50.21v-40.29h6.26v40.29h-6.26Zm50.13 0v-26.36c0-7.09-3.59-9.34-9.01-9.34-4.92 0-9.59 3-11.93 6.26v29.45h-6.26v-40.29h6.26v5.84c2.84-3.34 8.34-6.84 14.35-6.84 8.43 0 12.85 4.26 12.85 13.02v28.28h-6.26Zm48.12 0v-4.59c-3.34 3.67-7.93 5.59-13.35 5.59-6.84 0-14.1-4.59-14.1-13.35s7.26-13.26 14.1-13.26c5.51 0 10.09 1.75 13.35 5.51v-7.26c0-5.42-4.34-8.51-10.18-8.51-4.84 0-8.76 1.75-12.35 5.59l-2.92-4.34c4.34-4.5 9.51-6.67 16.1-6.67 8.51 0 15.6 3.84 15.6 13.6v27.7h-6.26Zm0-8.5v-7.59c-2.42-3.34-6.67-5.01-11.1-5.01-5.84 0-9.93 3.67-9.93 8.84s4.09 8.76 9.93 8.76c4.42 0 8.68-1.67 11.1-5.01Zm50.13 8.5v-26.36c0-7.09-3.59-9.34-9.01-9.34-4.92 0-9.59 3-11.93 6.26v29.45h-6.26v-40.29h6.26v5.84c2.84-3.34 8.34-6.84 14.35-6.84 8.43 0 12.85 4.26 12.85 13.02v28.28h-6.26Zm20.59-20.18c0-11.93 8.09-21.11 20.1-21.11 7.34 0 11.68 3.01 14.76 7.01l-4.17 3.84c-2.67-3.67-6.09-5.25-10.26-5.25-8.59 0-13.93 6.59-13.93 15.52s5.34 15.6 13.93 15.6c4.17 0 7.59-1.67 10.26-5.26l4.17 3.84c-3.08 4.01-7.42 7.01-14.76 7.01-12.01 0-20.1-9.18-20.1-21.19Zm46.71-30.03c0-2.34 1.92-4.26 4.17-4.26s4.26 1.92 4.26 4.26-1.92 4.17-4.26 4.17-4.17-1.84-4.17-4.17Zm1.09 50.21v-40.29h6.26v40.29h-6.26Zm48.12 0v-4.59c-3.34 3.67-7.93 5.59-13.35 5.59-6.84 0-14.1-4.59-14.1-13.35s7.26-13.26 14.1-13.26c5.51 0 10.09 1.75 13.35 5.51v-7.26c0-5.42-4.34-8.51-10.18-8.51-4.84 0-8.76 1.75-12.34 5.59l-2.92-4.34c4.34-4.5 9.51-6.67 16.1-6.67 8.51 0 15.6 3.84 15.6 13.6v27.7h-6.26Zm0-8.5v-7.59c-2.42-3.34-6.67-5.01-11.09-5.01-5.84 0-9.93 3.67-9.93 8.84s4.09 8.76 9.93 8.76c4.42 0 8.67-1.67 11.09-5.01Zm22.94 8.5v-55.64h6.26v55.64h-6.26Zm24.52 10.6-3.09-2.59c2.67-1.75 5.09-5.01 5.42-7.76-.17.08-.75.17-1.16.17-2.34 0-4.01-1.75-4.01-4.26s1.92-4.5 4.42-4.5c2.75 0 5.26 2.33 5.26 6.34 0 5.09-3.01 9.84-6.84 12.6Zm47.71-10.6v-55.64h6.92v49.47h25.86v6.17h-32.78Zm46.7 0v-55.64h6.92v49.47h25.86v6.17h-32.78Zm41.62-27.77c0-17.1 12.6-28.78 28.61-28.78 9.84 0 16.69 4.75 21.1 11.01l-5.84 3.25c-3.17-4.67-8.92-8.09-15.26-8.09-12.18 0-21.44 9.34-21.44 22.61s9.26 22.61 21.44 22.61c6.34 0 12.1-3.34 15.26-8.09l5.93 3.25c-4.67 6.34-11.35 11.01-21.19 11.01-16.02 0-28.61-11.68-28.61-28.78ZM676.52 21.16c-29.11-1.37-60.35 2.17-79.86 12.6 46.36 31.13 55.89 82.92 55.89 82.92h121.97c-22.01-54.47-58.86-80.02-98-95.52Z"></path>
  <path d="M394.47 115.67h121.97S535.8 9.81 654.53 9.81c0 0-193.28-56.33-260.06 105.86Zm632.37 608.54c0 3.18-1.12 5.89-3.36 8.13-2.24 2.24-4.95 3.36-8.13 3.36s-5.89-1.12-8.13-3.36-3.36-4.95-3.36-8.13 1.12-5.89 3.36-8.13c2.24-2.24 4.95-3.36 8.13-3.36s5.94 1.11 8.16 3.33c2.22 2.22 3.33 4.94 3.33 8.16Zm-1.74 0c0-2.74-.95-5.06-2.85-6.94-1.9-1.88-4.2-2.82-6.91-2.82s-5.01.94-6.91 2.82c-1.9 1.88-2.85 4.19-2.85 6.94s.95 4.97 2.85 6.89c1.9 1.91 4.2 2.87 6.91 2.87s5.01-.96 6.91-2.87c1.9-1.92 2.85-4.21 2.85-6.89Zm-4.34 6.61h-2.28l-3.41-5.2h-2.28v5.2h-1.84v-13.17h5.37c1.16 0 2.16.37 3.01 1.11.85.74 1.27 1.71 1.27 2.9 0 1.27-.41 2.23-1.22 2.9-.81.67-1.53 1.01-2.14 1.01l3.52 5.26Zm-2.06-9.16c0-.68-.24-1.25-.73-1.71s-1.04-.68-1.65-.68h-3.53v4.66h3.53c.61 0 1.16-.22 1.65-.65.49-.44.73-.98.73-1.63ZM893.71 462.71c0 3.18-1.12 5.89-3.36 8.13-2.24 2.24-4.95 3.36-8.13 3.36s-5.89-1.12-8.13-3.36-3.36-4.95-3.36-8.13 1.12-5.89 3.36-8.13 4.95-3.36 8.13-3.36 5.94 1.11 8.16 3.33c2.22 2.22 3.33 4.94 3.33 8.16Zm-1.74 0c0-2.74-.95-5.06-2.85-6.94-1.9-1.88-4.2-2.82-6.91-2.82s-5.01.94-6.91 2.82c-1.9 1.88-2.85 4.19-2.85 6.94s.95 4.97 2.85 6.89c1.9 1.91 4.2 2.87 6.91 2.87s5.01-.96 6.91-2.87c1.9-1.92 2.85-4.21 2.85-6.89Zm-4.34 6.61h-2.28l-3.41-5.2h-2.28v5.2h-1.84v-13.17h5.37c1.16 0 2.16.37 3.01 1.11.85.74 1.27 1.71 1.27 2.9 0 1.27-.41 2.23-1.22 2.9-.81.67-1.53 1.01-2.14 1.01l3.52 5.26Zm-2.06-9.16c0-.68-.24-1.25-.73-1.71s-1.04-.68-1.65-.68h-3.53v4.66h3.53c.61 0 1.16-.22 1.65-.65.49-.44.73-.98.73-1.63Z"></path>
</svg>
