<?xml version="1.0" encoding="UTF-8"?>
<svg xmlns="http://www.w3.org/2000/svg" viewBox="0 0 400 520" role="img" aria-label="Medicare Starter Guide placeholder cover">
  <defs>
    <linearGradient id="bg" x1="0" y1="0" x2="0" y2="1">
      <stop offset="0%" stop-color="#82A6B1"/>
      <stop offset="100%" stop-color="#547584"/>
    </linearGradient>
    <linearGradient id="spine" x1="0" y1="0" x2="1" y2="0">
      <stop offset="0%" stop-color="#000" stop-opacity="0.2"/>
      <stop offset="100%" stop-color="#000" stop-opacity="0"/>
    </linearGradient>
  </defs>
  <rect width="400" height="520" fill="url(#bg)"/>
  <rect x="0" y="0" width="18" height="520" fill="url(#spine)"/>
  <rect x="28" y="28" width="344" height="464" fill="none" stroke="#F5F5F0" stroke-width="1.5" opacity="0.55"/>
  <text x="200" y="90" fill="#F5F5F0" font-family="Georgia, serif" font-size="18" font-style="italic" text-anchor="middle" letter-spacing="4">SENIORSIMPLE</text>
  <line x1="130" y1="110" x2="270" y2="110" stroke="#F5F5F0" stroke-width="1" opacity="0.7"/>
  <text x="200" y="180" fill="#F5F5F0" font-family="Georgia, serif" font-size="22" font-weight="500" text-anchor="middle" opacity="0.9">The plain-English</text>
  <text x="200" y="235" fill="#F5F5F0" font-family="Georgia, serif" font-size="34" font-weight="700" text-anchor="middle">Medicare</text>
  <text x="200" y="280" fill="#F5F5F0" font-family="Georgia, serif" font-size="34" font-weight="700" text-anchor="middle">Starter Guide</text>
  <rect x="120" y="310" width="160" height="1" fill="#F5F5F0"/>
  <g transform="translate(200 370)" opacity="0.9">
    <path d="M -40 0 L -20 -20 L 40 -20 L 40 20 L -20 20 Z" fill="none" stroke="#F5F5F0" stroke-width="2"/>
    <path d="M -20 -20 L -20 20" stroke="#F5F5F0" stroke-width="2"/>
    <line x1="-10" y1="-10" x2="30" y2="-10" stroke="#F5F5F0" stroke-width="1"/>
    <line x1="-10" y1="0" x2="30" y2="0" stroke="#F5F5F0" stroke-width="1"/>
    <line x1="-10" y1="10" x2="20" y2="10" stroke="#F5F5F0" stroke-width="1"/>
  </g>
  <text x="200" y="445" fill="#F5F5F0" font-family="Georgia, serif" font-size="13" text-anchor="middle" letter-spacing="1" opacity="0.85">For newly eligible seniors</text>
</svg>
